#!OML:ASF E:\motion texture\Top Level 1\Subject 1\Session 1\male.ASF
:FULLY-SPECIFIED
:DEGREES
329
root 4.53916 17.8912 2.26362 61.5046 -86.5096 -52.9996
lowerback -0.763714 -0.579979 -1.58681
upperback -2.73176 -0.79872 0.856542
thorax -2.3404 -0.367634 1.77891
lowerneck -7.7977 -13.7892 -15.9212
upperneck 1.41114 -17.5658 12.7559
head 4.1918 -8.49321 4.98746
rclavicle -3.08116e-015 5.1684e-015
rhumerus -7.39203 -2.43337 -79.7259
rradius 57.6116
rwrist 26.5705
rhand -13.3108 -29.3238
rfingers 7.12502
rthumb 12.7936 -418.912
lclavicle -3.08116e-015 5.1684e-015
lhumerus -24.091 -0.46649 81.0214
lradius 44.0463
lwrist -11.0994
lhand -15.4567 18.8298
lfingers 7.12502
lthumb 10.7242 48.5361
rfemur -33.4815 -2.56583 20.9125
rtibia 23.8825
rfoot -1.26898 -15.1365
rtoes 2.54677
lfemur -4.6036 -6.58119 -20.5717
ltibia 14.3815
lfoot -11.2005 -9.84918
ltoes 9.24577
330
root 4.39772 17.8807 2.24557 56.6892 -86.3329 -48.0975
lowerback -0.756779 -0.612094 -1.6435
upperback -2.68617 -0.840166 0.902256
thorax -2.29426 -0.387049 1.85783
lowerneck -7.6403 -13.8367 -15.9821
upperneck 1.10498 -17.6294 12.8178
head 4.09363 -8.53057 5.02472
rclavicle 1.52816e-015 -1.19271e-015
rhumerus -9.07832 -2.96195 -80.6097
rradius 55.479
rwrist 26.2461
rhand -13.8715 -29.1204
rfingers 7.12502
rthumb 12.253 -418.741
lclavicle 1.52816e-015 -1.19271e-015
lhumerus -24.468 0.0552788 80.9218
lradius 43.4997
lwrist -11.3007
lhand -15.4517 18.9489
lfingers 7.12502
lthumb 10.729 48.6549
rfemur -33.4923 -2.31064 20.7892
rtibia 22.7437
rfoot -1.10409 -15.3235
rtoes 2.48254
lfemur -4.25672 -6.55772 -20.5601
ltibia 14.4914
lfoot -11.368 -10.1085
ltoes 9.13593
331
root 4.2549 17.8705 2.22817 52.5761 -86.144 -43.9038
lowerback -0.746128 -0.642072 -1.68539
upperback -2.63983 -0.878716 0.949806
thorax -2.24959 -0.40537 1.93032
lowerneck -7.49406 -13.8754 -16.0345
upperneck 0.810239 -17.6804 12.8694
head 3.99742 -8.56158 5.05862
rclavicle 5.93869e-015 -2.78299e-015
rhumerus -10.694 -3.61881 -81.4006
rradius 53.2447
rwrist 25.8355
rhand -14.2939 -28.9518
rfingers 7.12502
rthumb 11.8457 -418.597
lclavicle 5.93869e-015 -2.78299e-015
lhumerus -24.8664 0.61852 80.7966
lradius 42.9048
lwrist -11.5058
lhand -15.4485 19.0928
lfingers 7.12502
lthumb 10.7322 48.7987
rfemur -33.487 -2.04923 20.6754
rtibia 21.6916
rfoot -0.935409 -15.5008
rtoes 2.48345
lfemur -3.92155 -6.52963 -20.5428
ltibia 14.6386
lfoot -11.5134 -10.3636
ltoes 8.99388
332
root 4.11071 17.8607 2.21146 49.0682 -85.9491 -40.3211
lowerback -0.731713 -0.670566 -1.71258
upperback -2.59383 -0.915288 0.998935
thorax -2.20754 -0.423028 1.99621
lowerneck -7.35769 -13.9052 -16.0769
upperneck 0.527747 -17.7194 12.9102
head 3.90307 -8.58644 5.08884
rclavicle -2.37299e-015 7.7526e-015
rhumerus -12.2414 -4.40091 -82.0868
rradius 50.9282
rwrist 25.3463
rhand -14.5491 -28.8148
rfingers 7.12502
rthumb 11.5996 -418.474
lclavicle -2.37299e-015 7.7526e-015
lhumerus -25.2897 1.22268 80.6437
lradius 42.2635
lwrist -11.7165
lhand -15.4492 19.2724
lfingers 7.12502
lthumb 10.7315 48.9783
rfemur -33.4662 -1.78589 20.5729
rtibia 20.7272
rfoot -0.762164 -15.6693
rtoes 2.55381
lfemur -3.59943 -6.49935 -20.5201
ltibia 14.8247
lfoot -11.6312 -10.6146
ltoes 8.81989
333
root 3.96512 17.8514 2.19545 46.0829 -85.7517 -37.266
lowerback -0.716428 -0.698426 -1.72394
upperback -2.54738 -0.950969 1.04987
thorax -2.16567 -0.440604 2.05506
lowerneck -7.23519 -13.9264 -16.1078
upperneck 0.260525 -17.7461 12.9381
head 3.81171 -8.60499 5.11415
rclavicle 2.96935e-015 3.57812e-015
rhumerus -13.721 -5.30553 -82.6573
rradius 48.5517
rwrist 24.7998
rhand -14.6221 -28.7082
rfingers 7.12502
rthumb 11.5292 -418.371
lclavicle 2.96935e-015 3.57812e-015
lhumerus -25.7353 1.87108 80.4605
lradius 41.5734
lwrist -11.938
lhand -15.4521 19.4841
lfingers 7.12502
lthumb 10.7287 49.1901
rfemur -33.4302 -1.5254 20.4853
rtibia 19.8504
rfoot -0.58459 -15.8227
rtoes 2.7087
lfemur -3.29459 -6.46553 -20.49
ltibia 15.0535
lfoot -11.7158 -10.8664
ltoes 8.60735
